<?xml version="1.0" encoding="iso-8859-1"?>
<!-- Generator: Adobe Illustrator 19.0.0, SVG Export Plug-In . SVG Version: 6.00 Build 0)  -->
<svg xmlns="http://www.w3.org/2000/svg" xmlns:xlink="http://www.w3.org/1999/xlink" version="1.1" id="Layer_1" x="0px" y="0px" viewBox="0 0 512.001 512.001" style="enable-background:new 0 0 512.001 512.001;" xml:space="preserve">
<path style="fill:#D5DCED;" d="M25.988,52.527V335.62c0,24.429,63.373,44.233,141.546,44.233S309.08,360.049,309.08,335.62V52.527  H25.988z"/>
<path style="fill:#C7CFE2;" d="M167.534,175.827c38.624,0,75.048-4.735,102.563-13.333c13.063-4.083,23.514-8.861,31.243-14.22  v-27.932c-0.352,0.92-0.553,1.914-0.553,2.958c0,14.653-51.909,35.94-133.253,35.94c-6.207,0-12.24-0.125-18.092-0.362  c-4.727-0.191-8.447-4.107-8.447-8.838V52.527H25.988V335.62c0,21.591,49.531,39.543,115.006,43.429v-53.165  c0-5.026,4.178-9.022,9.199-8.833c5.715,0.213,11.502,0.323,17.341,0.323c38.624,0,75.048-4.735,102.563-13.333  c1.726-0.54,3.404-1.093,5.039-1.655l-0.13-17.645c-22.989,8.879-60.273,16.046-107.471,16.046c-6.207,0-12.24-0.125-18.092-0.362  c-4.727-0.191-8.447-4.107-8.447-8.838v-36.475c0-5.026,4.178-9.022,9.199-8.833c5.715,0.212,11.502,0.322,17.341,0.322  c38.624,0,75.048-4.735,102.563-13.333c13.063-4.083,23.514-8.861,31.243-14.22v-27.932c-0.352,0.92-0.553,1.914-0.553,2.958  c0,14.653-51.909,35.94-133.253,35.94c-6.207,0-12.24-0.125-18.092-0.362c-4.727-0.191-8.447-4.107-8.447-8.838v-36.475  c0-5.026,4.178-9.022,9.199-8.833C155.908,175.718,161.695,175.827,167.534,175.827z"/>
<ellipse style="fill:#E4EAF8;" cx="167.534" cy="52.527" rx="141.546" ry="44.233"/>
<g>
	<path style="fill:#7F8499;" d="M405.949,448.663l25.022-25.022l25.022,25.022c3.455,3.455,3.455,9.057,0,12.511l-12.511,12.511   c-3.455,3.455-9.057,3.455-12.511,0L405.949,448.663z"/>
	<path style="fill:#7F8499;" d="M318.372,311.043l-25.022,25.022l-25.022-25.022c-3.455-3.455-3.455-9.057,0-12.511l12.511-12.511   c3.455-3.455,9.057-3.455,12.511,0L318.372,311.043z"/>
	<path style="fill:#7F8499;" d="M430.971,336.064l-25.022-25.022l25.022-25.022c3.455-3.455,9.057-3.455,12.511,0l12.511,12.511   c3.455,3.455,3.455,9.057,0,12.511L430.971,336.064z"/>
	<path style="fill:#7F8499;" d="M293.35,423.642l25.022,25.022l-25.022,25.022c-3.455,3.455-9.057,3.455-12.511,0l-12.511-12.511   c-3.455-3.455-3.455-9.057,0-12.511L293.35,423.642z"/>
	<path style="fill:#7F8499;" d="M441.78,397.546V362.16h35.387c4.886,0,8.847,3.961,8.847,8.847V388.7   c0,4.886-3.961,8.847-8.847,8.847H441.78z"/>
	<path style="fill:#7F8499;" d="M282.54,362.16v35.387h-35.387c-4.886,0-8.847-3.961-8.847-8.847v-17.693   c0-4.886,3.961-8.847,8.847-8.847H282.54z"/>
	<path style="fill:#7F8499;" d="M379.854,300.233h-35.387v-35.387c0-4.886,3.961-8.847,8.847-8.847h17.693   c4.886,0,8.847,3.961,8.847,8.847V300.233z"/>
	<path style="fill:#7F8499;" d="M344.467,459.473h35.387v35.387c0,4.886-3.961,8.847-8.847,8.847h-17.693   c-4.886,0-8.847-3.961-8.847-8.847V459.473z"/>
</g>
<path style="fill:#707487;" d="M362.16,281.987c-54.05,0-97.866,43.816-97.866,97.866s43.816,97.866,97.866,97.866  s97.866-43.816,97.866-97.866S416.21,281.987,362.16,281.987z M362.16,415.441c-19.654,0-35.588-15.933-35.588-35.588  s15.933-35.588,35.588-35.588c19.655,0,35.588,15.933,35.588,35.588S381.814,415.441,362.16,415.441z"/>
<path style="fill:#5B5D6E;" d="M362.16,309.08c-39.087,0-70.773,31.686-70.773,70.773s31.686,70.773,70.773,70.773  s70.773-31.686,70.773-70.773S401.247,309.08,362.16,309.08z M362.16,415.24c-19.543,0-35.387-15.843-35.387-35.387  s15.843-35.387,35.387-35.387s35.387,15.843,35.387,35.387S381.704,415.24,362.16,415.24z"/>
<path d="M362.16,317.374c5.298,0,10.558,0.664,15.633,1.97c4.439,1.143,8.959-1.527,10.101-5.963  c1.142-4.435-1.527-8.957-5.963-10.1c-6.426-1.655-13.078-2.495-19.771-2.495c-43.597,0-79.067,35.47-79.067,79.067  c0,13.896,3.658,27.565,10.578,39.532c1.537,2.657,4.323,4.144,7.187,4.144c1.409,0,2.836-0.359,4.145-1.116  c3.966-2.294,5.321-7.366,3.027-11.331c-5.462-9.447-8.349-20.244-8.349-31.229C299.681,345.402,327.709,317.374,362.16,317.374z"/>
<path d="M428.643,354.143c-4.437,1.14-7.108,5.661-5.967,10.097c1.304,5.07,1.964,10.324,1.964,15.613  c0,34.451-28.028,62.479-62.479,62.479c-10.994,0-21.804-2.893-31.257-8.367c-3.961-2.295-9.038-0.942-11.333,3.022  c-2.296,3.963-0.943,9.038,3.021,11.334c11.976,6.935,25.659,10.599,39.568,10.599c43.597,0,79.067-35.47,79.067-79.067  c0-6.681-0.837-13.323-2.487-19.742C437.6,355.675,433.085,352.999,428.643,354.143z"/>
<path d="M401.206,331.074c3.571,2.862,6.836,6.124,9.704,9.696c1.638,2.04,4.044,3.101,6.472,3.101c1.821,0,3.657-0.598,5.187-1.828  c3.571-2.867,4.141-8.088,1.273-11.66c-3.624-4.513-7.75-8.635-12.264-12.253c-3.574-2.864-8.794-2.288-11.659,1.285  C397.057,322.989,397.631,328.209,401.206,331.074z"/>
<path d="M477.167,353.866h-3.638c-2.828-12.24-7.594-23.763-14.23-34.4l2.56-2.56c6.68-6.681,6.68-17.555-0.001-24.239  l-12.51-12.511c-6.685-6.684-17.556-6.683-24.241,0l-2.558,2.559c-10.636-6.636-22.16-11.402-34.4-14.23v-3.638  c0-9.452-7.689-17.14-17.14-17.14h-17.693c-9.452,0-17.14,7.689-17.14,17.14v3.638c-12.24,2.828-23.764,7.594-34.4,14.23  l-2.558-2.559c-6.683-6.681-17.557-6.684-24.24,0l-12.512,12.512c-6.68,6.681-6.68,17.555,0.001,24.239l2.559,2.559  c-6.636,10.637-11.403,22.16-14.23,34.4h-3.638c-9.452,0-17.14,7.689-17.14,17.14V388.7c0,9.452,7.689,17.14,17.14,17.14h3.638  c2.828,12.24,7.594,23.763,14.23,34.399l-2.561,2.56c-6.679,6.683-6.679,17.555,0.002,24.24l12.51,12.51  c3.238,3.238,7.542,5.022,12.121,5.022c4.578,0,8.882-1.783,12.12-5.02l2.558-2.559c10.636,6.636,22.16,11.403,34.4,14.231v3.638  c0,9.452,7.689,17.14,17.14,17.14h17.693c9.452,0,17.14-7.689,17.14-17.14v-3.638c12.24-2.828,23.764-7.595,34.4-14.231l2.558,2.559  c3.238,3.238,7.542,5.022,12.12,5.022c4.579,0,8.883-1.783,12.12-5.02l12.514-12.512c6.679-6.683,6.679-17.555-0.002-24.24  l-2.559-2.559c6.636-10.637,11.403-22.159,14.23-34.399h3.638c9.452,0,17.14-7.689,17.14-17.14v-17.693  C494.307,361.555,486.618,353.866,477.167,353.866z M477.72,388.7c0,0.305-0.249,0.553-0.553,0.553h-10.438  c-4.05,0-7.507,2.925-8.179,6.919c-2.466,14.671-8.078,28.235-16.678,40.315c-2.349,3.299-1.972,7.812,0.892,10.676l7.365,7.365  c0.216,0.216,0.216,0.568,0.002,0.783l-12.512,12.511c-0.04,0.04-0.161,0.161-0.391,0.161c-0.228,0-0.349-0.122-0.39-0.161  l-7.366-7.366c-2.864-2.864-7.377-3.239-10.675-0.892c-12.08,8.6-25.644,14.212-40.316,16.679c-3.994,0.671-6.919,4.129-6.919,8.179  v10.438c0,0.305-0.249,0.553-0.553,0.553h-17.693c-0.304,0-0.553-0.248-0.553-0.553v-10.438c0-4.05-2.925-7.508-6.919-8.179  c-14.672-2.467-28.236-8.079-40.316-16.679c-1.45-1.032-3.133-1.537-4.808-1.537c-2.138,0-4.262,0.824-5.868,2.43l-7.366,7.367  c-0.04,0.04-0.161,0.161-0.39,0.161c-0.229,0-0.351-0.122-0.391-0.163l-12.51-12.509c-0.216-0.216-0.216-0.568-0.002-0.783  l7.367-7.366c2.864-2.863,3.241-7.376,0.892-10.676c-8.6-12.08-14.212-25.644-16.678-40.315c-0.671-3.994-4.129-6.919-8.179-6.919  h-10.439c-0.304,0-0.553-0.248-0.553-0.553v-17.693c0-0.305,0.249-0.553,0.553-0.553h10.438c4.05,0,7.507-2.925,8.179-6.919  c2.466-14.672,8.078-28.236,16.678-40.316c2.349-3.299,1.972-7.812-0.892-10.676l-7.366-7.365c-0.216-0.217-0.216-0.567-0.001-0.783  l12.512-12.511c0.212-0.215,0.566-0.216,0.781,0l7.366,7.366c2.865,2.864,7.377,3.24,10.675,0.892  c12.08-8.6,25.643-14.212,40.316-16.679c3.994-0.671,6.919-4.129,6.919-8.179v-10.438c0-0.305,0.249-0.553,0.553-0.553h17.693  c0.304,0,0.553,0.248,0.553,0.553v10.438c0,4.05,2.925,7.508,6.919,8.179c14.673,2.467,28.236,8.079,40.316,16.679  c3.298,2.349,7.81,1.972,10.675-0.892l7.366-7.366c0.213-0.216,0.567-0.215,0.782,0l12.51,12.51  c0.216,0.217,0.216,0.567,0.001,0.783l-7.367,7.366c-2.864,2.863-3.241,7.376-0.892,10.676c8.6,12.08,14.212,25.644,16.678,40.316  c0.671,3.994,4.129,6.919,8.179,6.919h10.438c0.304,0,0.553,0.248,0.553,0.553V388.7H477.72z"/>
<path d="M318.48,379.853c0,24.085,19.595,43.68,43.68,43.68c24.085,0,43.68-19.595,43.68-43.68c0-24.085-19.595-43.68-43.68-43.68  C338.075,336.173,318.48,355.768,318.48,379.853z M389.253,379.853c0,14.939-12.153,27.093-27.093,27.093  c-14.94,0-27.093-12.154-27.093-27.093s12.153-27.093,27.093-27.093C377.1,352.76,389.253,364.914,389.253,379.853z"/>
<path d="M236.831,153.455c-5.54,1.001-11.348,1.889-17.261,2.635c-4.544,0.575-7.762,4.724-7.187,9.269  c0.53,4.191,4.1,7.254,8.217,7.254c0.346,0,0.699-0.022,1.051-0.066c6.203-0.784,12.303-1.716,18.131-2.769  c4.507-0.814,7.501-5.129,6.687-9.636C245.653,155.634,241.341,152.64,236.831,153.455z"/>
<path d="M220.6,243.387c0.346,0,0.699-0.022,1.051-0.066c6.203-0.784,12.303-1.716,18.131-2.769  c4.507-0.814,7.501-5.129,6.687-9.636c-0.815-4.507-5.128-7.503-9.637-6.686c-5.54,1.001-11.348,1.889-17.261,2.635  c-4.544,0.575-7.762,4.724-7.187,9.269C212.912,240.324,216.484,243.387,220.6,243.387z"/>
<path d="M237.657,303.384c-0.69-4.528-4.922-7.638-9.448-6.95c-2.821,0.43-5.728,0.835-8.639,1.202  c-4.544,0.575-7.763,4.724-7.188,9.269c0.53,4.191,4.1,7.254,8.217,7.254c0.347,0,0.698-0.022,1.051-0.066  c3.051-0.386,6.098-0.809,9.057-1.261C235.236,312.143,238.347,307.912,237.657,303.384z"/>
<path d="M202.256,370.193c-11.275,0.907-22.956,1.367-34.722,1.367c-36.992,0-71.659-4.468-97.614-12.579  c-26.306-8.22-35.639-17.721-35.639-23.361v-45.417c7.671,5.204,17.938,9.852,30.69,13.837  c27.514,8.598,63.938,13.333,102.563,13.333c6.028,0,12.09-0.117,18.016-0.348c4.577-0.179,8.142-4.034,7.963-8.611  c-0.178-4.577-4.036-8.154-8.611-7.964c-5.712,0.223-11.555,0.336-17.368,0.336c-81.344,0-133.253-21.286-133.253-35.94V219.43  c7.671,5.204,17.938,9.852,30.69,13.837c27.514,8.598,63.938,13.333,102.563,13.333c6.028,0,12.09-0.117,18.016-0.348  c4.577-0.179,8.142-4.034,7.963-8.611c-0.178-4.577-4.036-8.15-8.611-7.964c-5.712,0.223-11.555,0.336-17.368,0.336  c-81.344,0-133.253-21.286-133.253-35.94v-45.417c7.671,5.204,17.938,9.852,30.69,13.837c27.514,8.598,63.938,13.333,102.563,13.333  c6.028,0,12.09-0.117,18.016-0.348c4.577-0.179,8.142-4.034,7.963-8.611c-0.178-4.577-4.036-8.144-8.611-7.964  c-5.712,0.223-11.555,0.336-17.368,0.336c-81.344,0-133.253-21.286-133.253-35.94V77.884c7.671,5.204,17.938,9.852,30.69,13.837  c27.514,8.598,63.938,13.333,102.563,13.333s75.048-4.735,102.563-13.333c12.752-3.985,23.019-8.633,30.69-13.837V123.3  c0,8.022-16.088,16.564-29.864,21.442c-4.318,1.528-6.579,6.268-5.05,10.586c1.205,3.404,4.403,5.528,7.818,5.528  c0.918,0,1.853-0.154,2.768-0.478c8.142-2.883,16.966-6.753,24.328-11.752v45.446c0,8.022-16.088,16.564-29.864,21.442  c-4.318,1.528-6.579,6.268-5.05,10.586c1.205,3.404,4.403,5.528,7.818,5.528c0.918,0,1.853-0.154,2.768-0.478  c8.142-2.883,16.966-6.753,24.328-11.752v27.753c0,4.58,3.712,8.294,8.294,8.294c4.581,0,8.294-3.713,8.294-8.294V52.527  c0-15.975-16.349-29.529-47.278-39.194C242.582,4.735,206.158,0,167.534,0S92.486,4.735,64.971,13.333  c-30.929,9.665-47.278,23.219-47.278,39.194V335.62c0,15.975,16.349,29.528,47.278,39.194  c27.514,8.598,63.938,13.333,102.563,13.333c12.207,0,24.337-0.478,36.053-1.42c4.566-0.368,7.969-4.367,7.601-8.933  C210.822,373.229,206.813,369.83,202.256,370.193z M167.534,16.587c81.344,0,133.253,21.286,133.253,35.94  s-51.909,35.94-133.253,35.94S34.281,67.18,34.281,52.527S86.19,16.587,167.534,16.587z"/>
<g>
</g>
<g>
</g>
<g>
</g>
<g>
</g>
<g>
</g>
<g>
</g>
<g>
</g>
<g>
</g>
<g>
</g>
<g>
</g>
<g>
</g>
<g>
</g>
<g>
</g>
<g>
</g>
<g>
</g>
</svg>
